<svg id="vector" xmlns="http://www.w3.org/2000/svg" width="24.0dpx" height="24.0dpx" viewBox="0 0 24.0 24.0" transform="rotate(0) scale(1, 1)"><path fill="#7fb754" d="M24,4.5C24,6.985 21.985,9 19.5,9C17.622,9 16.013,7.85 15.338,6.215C15.33,6.194 15.321,6.172 15.312,6.15C15.176,5.804 15.081,5.437 15.034,5.056C15.012,4.874 15,4.688 15,4.5C15,2.015 17.015,0 19.5,0C21.985,0 24,2.015 24,4.5ZM21.93,2.756C22.071,2.518 21.993,2.212 21.756,2.07C21.518,1.929 21.212,2.007 21.07,2.244L18.962,5.788L17.907,4.31C17.747,4.085 17.434,4.033 17.209,4.194C16.985,4.354 16.933,4.667 17.093,4.891L18.374,6.686C18.691,7.13 19.347,7.096 19.623,6.632L21.93,2.756Z" fill-rule="evenodd" id="path_0"/><path fill="#7fb754" d="M7.509,6.5C7.285,6.5 7.089,6.648 7.028,6.863L6.171,9.863C6.079,10.182 6.319,10.5 6.651,10.5H19.109C19.479,10.5 19.815,10.708 20.014,11.021C20.17,11.267 20.334,11.491 20.493,11.67C20.809,12.023 21,12.489 21,13V16C21,17.104 20.105,18 19,18H5C3.895,18 3,17.104 3,16V13C3,12.489 3.192,12.023 3.507,11.67C3.992,11.125 4.528,10.151 4.728,9.451L5.586,6.451C5.668,6.162 5.812,5.903 6,5.687C6.371,5.261 6.916,5 7.509,5H13.521C13.564,5.522 13.673,6.025 13.841,6.5H7.509ZM6.75,12C6.06,12 5.5,12.56 5.5,13.25C5.5,13.94 6.06,14.5 6.75,14.5C7.44,14.5 8,13.94 8,13.25C8,12.56 7.44,12 6.75,12ZM18.5,13.25C18.5,12.56 17.94,12 17.25,12C16.56,12 16,12.56 16,13.25C16,13.94 16.56,14.5 17.25,14.5C17.94,14.5 18.5,13.94 18.5,13.25Z" fill-rule="evenodd" id="path_1"/><path fill="#7fb754" d="M3,10H3.719L4.219,8H3C2.448,8 2,8.448 2,9C2,9.552 2.448,10 3,10Z" id="path_2"/><path fill="#7fb754" d="M7,19V20C7,20.552 6.552,21 6,21H5C4.448,21 4,20.552 4,20V19H7Z" id="path_3"/><path fill="#7fb754" d="M20,20V19H17V20C17,20.552 17.448,21 18,21H19C19.552,21 20,20.552 20,20Z" id="path_4"/></svg>