<svg id="ehJwp5tsxGP1" xmlns="http://www.w3.org/2000/svg" xmlns:xlink="http://www.w3.org/1999/xlink" viewBox="0 0 32 32" shape-rendering="geometricPrecision" text-rendering="geometricPrecision" project-id="9b45ecda441b4f529d55896a6ef68bdc" export-id="264b299e6e7f40e6977141f5d2890dff" cached="false"><path d="M0,16C0,32,0,32,16,32s16,0,16-16s0-16-16-16-16,0-16,16Z" fill="#dc173e"/><path d="M14.21,4.348c.384.664.533,1.3.745,1.901.349-.046.75.046,1.145.075.452.086.807.126,1.145.075.206-.951.384-1.426.796-2.09-.183.126-.566.171-.721.401-.229-.201-.407-.075-.521.137.041-.172-.011-.315-.235-.332.132-.247-.074-.373-.286-.263-.006-.218-.177-.218-.189-.333-.029.132-.183.069-.16.39-.172-.138-.344-.046-.274.194-.212,0-.27.172-.247.39-.143-.333-.412-.235-.509-.115-.166-.332-.297-.12-.682-.429h-.007v-.001Z" fill="#f7d256" fill-rule="evenodd"/><path d="M17.578,6.042c-.241.418-.349.447-1.415.281-.842-.086-1.603-.321-1.637.44.28.035.686.064.858.659l-.515.441c-.367.057-.94.544-1.317.091-.103.424.286.544.698.527.286-.029.378-.109.911-.212l.143.155c.807.069,1.225,1.219-.086,1.901-.052.155.034.344.155.367-.379.538-1.008,1.207-1.232.767-.052.052-.2.418.086.618-.217.269-.297.584-.286.945-.864-.137-1.431-.281-1.236-1.088.915.04,1.168-1.065,1.031-1.627-.533-2.244-3.43-4.048-5.538-4.105.115.613.493,1.054.922,1.46-.561-.274-1.208-.538-1.889-.395.08.482.338,1.043,1.442,1.953-.796-.47-1.522-.933-1.78-1.305-.114.155-.178.784.498,1.243-.217-.087-1.277-.08-1.598.154.195.441,1.082,1.214,1.81,1.455-.693-.104-1.34-.379-1.93-.882-.086.08,0,.899.739,1.219-.24.018-1.054.247-1.26.504.424.567,1.511,1.066,2.05,1.066-.733.097-1.54-.052-1.873-.155.006.189-.149.944,1.861.819-.716.337-1.803,1.047-1.975,1.666.698.309,1.946.052,2.594-.149-1.913,1.168-2.211,1.288-2.565,1.208.463.979,1.58.315,2.542-.229-1.185,1.586-1.38,2.393-1.351,3.521.956-.114,2.336-1.483,3.075-2.651-.853,1.758-1.363,3.167-2.291,3.584c1.059.418,1.97-.91,2.611-2.324-.246.892-.344,2.788-.034,3.252.956-.648,1.683-2.09,2.17-3.745-.166.813-.286,1.632-.59,2.445.619.114.934-.991,1.14-1.638.017.034.04.063.102.12.779-.566,1.025-1.878,1.082-2.387.71.2,1.025-.057,1.203-.189.155.217.166.55.212.595-.773-.63-1.598,0-1.632,1.048-.086.435-.315.939-.899,1.328.034.046.121.069.224.064-.103.177-.195.326-.367.486.046.029.097.029.155.04-.132.218-.344.418-.562.527.052.052.081.069.241.109-.144.189-.379.367-.601.459.424.251.744.28,1.008.257-.166.333-.436.498-.699.648.08.074.183.091.263.068-.24.247-.492.441-.716.516.041.029.069.074.218.063-.16.2-.361.395-.71.486.068.132.212.115.332.115-.097.206-.395.274-.698.338.229.063.383.189.246.154-.091.109-.183.166-.378.201-.201.029-.928-.229-1.219-.132-.08-.166-.281-.281-.493-.281-.269,0-.532.172-.55.413-.04-.029-.217-.052-.189.155.064.12.069.223.452.372.064.029.138.04.235.04.138-.006.292-.075.407-.178.194.041.406.075.52.121-.303.023-.412.194-.584.315-.074,0-.131-.023-.2-.034-.041-.007-.08-.012-.121-.012-.217.012-.44.258-.463.538c0,.058.011.109.034.161v.045c-.068.08-.04.144.023.189.269.103.424.041.521.023.24-.029.447-.229.447-.452.286-.052.566-.132.727-.246.006.017.012.034.012.057-.098.057-.264.155-.35.441-.029,0-.052,0-.074,0-.327,0-.407.223-.402.412c0,.178.069.298.167.367-.018.114-.006.206.109.24.389.063.486-.143.561-.137c0-.052.006-.086.023-.12.12-.058.2-.104.212-.327.011-.137-.012-.223-.057-.28h.011c.355-.304.584-.544.739-.751.137.035.447.023.595-.029v.057c-.148.138-.051.464.138.453-.007.029-.007.057,0,.091.12.075.349.023.52.063.092-.011.132-.068.109-.189.138-.086.235-.235.212-.418c0-.257-.2-.463-.452-.481-.269-.029-.521.16-.469-.251.732-.865,1.729-2.176,2.003-2.33-.022-.029-.034-.064-.052-.103.11.286.516.589.951.561-.08-.149-.166-.281-.194-.676.063.092.171.138.309.166-.2-.921.098-1.683.716-2.375-.051.892-.16,1.791-.704,2.697.28.086.641-.195.693-.367.057.801-.705,1.837-1.3,1.339-.372.825.515,1.22,1.071.745-.098.497-.482.79-.905.904-.424.114-.864-.063-.584-.744-.057-.035-.91-.057-.933.87.023.532.389.739.418.744-1.214.916.011,1.941,1.008,1.746.79-.121,1.243-.767,1.529-1.231-.087.337-.447,1.408.469,2.576.904-1.414.521-2.365.498-2.514.71,1.093,1.414,1.173,1.826,1.151.71.011,1.712-1.1.436-1.815.652-.31.698-1.604-.224-1.666.189.509-.212.819-.653.778-.44-.04-.847-.292-1.001-.864.87.418,1.271-.407.973-.847-.739.613-1.093-.372-1.191-.957.189.144.356.195.671.149-.601-.773-.745-1.815-.796-2.788.412.653.812,1.448.801,2.233.097-.046.183-.057.349-.401.018.584-.052.664-.252.91.327.138.751-.125.951-.475.63.848,1.312,1.724,1.97,2.399.143.149.194.297-.075.349-.847-.314-.939.573-.584.694-.029.08-.034.166-.011.251.166.052.509-.086.6-.091.041-.041.041-.121.041-.201.086,0,.143-.052.183-.12.166.034.326.052.538-.121l.63.63c.034.017-.034.086.057.097-.069.418.092.464.229.573-.029.401.573.172.63.195.063-.041.068-.081.057-.126.068-.075.034-.109.011-.16.298-.459-.125-.808-.36-.767-.252-.275-.43-.39-.63-.556.412.155,1.047.333,1.231.464.069.47.481.275.785.292.091-.132.046-.171,0-.217.395-.516-.441-.933-.796-.63-.212-.194-.395-.229-.584-.309.08-.081.246-.144.629-.167.172.115.338.155.51.029.075.16.217.121.269.092.126-.144.126-.361.16-.561-.034-.075-.086-.121-.183-.115-.258-.441-.756-.171-.784.023-.43.034-.813.092-1.266.269-.149.046-.292-.114-.418-.212.114-.045.217-.097.212-.194-.183-.018-.361,0-.573-.224l.058-.148c-.167-.052-.338-.172-.556-.51.046-.029.087-.074.126-.148-.246-.057-.447-.189-.607-.379.058-.029.115-.08.167-.16-.229-.137-.447-.257-.888-.83v-.006c.464.075.945.034,1.225-.178-.228-.063-.624-.194-.807-.538.086-.006.137-.023.194-.04-.344-.229-.435-.35-.527-.539.075.006.178-.029.212-.075-.223-.103-.321-.24-.401-.389.092,0,.189.017.263-.034-.881-.395-.755-2.457-1.706-2.462-.424.034-.498.125-.716.234.063-.177.171-.344.286-.504.515.241.928.103,1.065-.017.069.83.338,1.718.911,2.158.097-.057.217-.125.285-.205.103.767.39,1.78,1.037,1.695-.298-.739-.292-1.483-.327-2.228.269,2.17.94,3.436,1.489,3.82.251-.338.44-1.919.321-2.875.543.979,1.145,1.889,1.649,1.884.229,0,.481-.189.636-.235-.79-.321-1.328-1.775-1.81-2.679.911,1.426,1.993,2.067,2.503,2.165.018-.441.114-1.673-1.019-3.384c2.026,1.07,2.456.378,2.576.011-.916.321-2.147-.859-2.972-1.231l-.011-.035c1.208.55,2.393.739,3.132.275-.629-.974-1.243-1.328-1.907-1.581c1.312.144,1.741-.297,1.769-.79-.481.16-.921.189-1.494.098c1.254-.252,1.483-.785,1.472-.836-.322-.251-.929-.532-1.478-.584c1.512-.543,1.031-1.059.974-1.219-.47.441-1.288.756-1.437.744.705-.367,1.317-1.334,1.277-1.443-.355-.182-1.082-.171-1.38-.086.292-.321.682-.876.326-1.334-.344.486-.67.739-.99.997.297-.373.636-.802.756-1.678-.441.057-.842.018-1.415.395.326-.412.532-.813.573-1.305-1.976.137-4.289,1.173-5.406,3.762-.326.761-.068,2.049.945,1.901.16.652-.269,1.047-1.208,1.019-.017-.217.046-.653-.217-.876.229-.017.275-.132.321-.229-.613-.143-.515-.344-.401-1.431.08.034.172.011.24-.052-.251-.235-.171-.664-.04-2.021.023-.59-.098-.888-.229-.991.08-.04.132-.103.092-.251.28-.052.16-.395.045-.51-.057.155-.297.212-.527.041.281-.126.281-.441.069-.659l.008-.013Zm1.144,14.596c0,0,.018.022.029.034-.011-.012-.017-.018-.029-.029v-.005Zm-5.783.039c-.029.103.023.384.03.567.091.045.257,0,.446-.075-.011,0-.023.012-.029.012-.143.051-.315.108-.417.063l-.035-.418c-.006-.046-.006-.098.006-.155l-.001.006Zm-.068.018c0,0-.034.011-.046.011.017,0,.034-.006.046-.011Zm5.972.052c.212.154.469.154.561.132c0-.012.011-.023.017-.035c0,.012-.006.029-.011.041-.195.027-.39-.001-.567-.138Zm-1.844,3.721c.194.206.956.767,1.832.498.075.498-.349.682-.682.619-.326-.069-.812-.327-1.15-1.111v-.006Zm-1.746.126c-.286.544-.756,1.002-1.18,1.111-.417.109-.813-.097-.658-.647.91.303,1.649-.235,1.838-.47v.006Z" fill="#fff" fill-rule="evenodd"/><path d="M11.061,14.54c-.309-.361-.263-.59-.251-.722-.338-.257-.252-.355-.31-.458.121.206.235.344.356.361.223.206.446.274.67.406-1.369-.75-.991-1.666-.974-1.93-.212.006-.372-.034-.486-.12.04-.372.234-.67.647-.876-.052.017-.103.04-.155.052-.046-.012-.166-.315-.017-.516.086-.052.315-.074.549.018.138-.281.315-.527.687-.625.092.098.247.379.138.87.154.057.303.126.424.31-.041.155-.075.2-.115.24.601.006.659-.836-.011-.922.109-.79-.904-1.259-1.346-.286-.813-.217-1.031.413-.721.911-.098.074-.905.664-.138,1.511c0,.418.103.824.671,1.179.16.482.263.482.383.585l-.001.012Z" fill="#dfdde2" fill-rule="evenodd"/><path d="M21.122,10.125l.109-.205c.732-.115,1.173.372.887.95.59.505.263,1.163-.091,1.289.424-.315.189-.412.12-.406.023-.012.057-.029.086-.057-.023-.275-.132-.539-.555-.854.212-.235.189-.452.16-.607-.234-.063-.44-.04-.624.052l-.092-.171v.009Z" fill="#dfdde2" fill-rule="evenodd"/><path d="M20.108,11.55c.034-.114.063-.297.269-.47-.063.046-.137.103-.217.172-.263-.109-.435-.349-.475-.498.16-.212.55-.178.601-.166-.115-.424.034-.739.137-.859.349.035.532.212.676.372l.103-.189c-.098-.297-.39-.52-.733-.452-.286.029-.618.281-.487.87-.87.349-.497,1.185.121,1.214l.005.006Z" fill="#dfdde2" fill-rule="evenodd"/><path d="M18.219,13.033c-.034.321-.098.556-.166.774c1.179-.178,2.932-.482,2.697-1.781-.218.155-.43.183-.648.189-.034-.183-.057-.383.006-.641-.194.263-.424.367-.664.424c1.071.475-.452,1.323-1.088,1.036h-.143l.006-.001Z" fill="#f1eef0" fill-rule="evenodd"/><path d="M13.953,13.521c.034.366.148.812.257,1.231-.074-.12-.303-.842-.257-1.231Z" fill="#e8e6eb" fill-rule="evenodd"/><path d="M17.469,13.263c-.286,1.134.973,1.02.091-.137.859.527.298,1.312.252,1.489-.138-.608-.664-.762-.343-1.352Z" fill="#c3bdc9" fill-rule="evenodd"/><path d="M11.777,10.16l-.429,1.254c-.103-.046-.206-.086-.344-.246c0-.435.39-.974.767-1.008h.006Z" fill="#fff" fill-rule="evenodd"/><path d="M12.115,12.605l-.767-1.185c.121,0,.258,0,.429-.041.229.212.475.762.344,1.226h-.006Z" fill="#c3bdc9" fill-rule="evenodd"/><path d="M11.897,11.019c.229.063.39.217.418.309l-.544.051c.052-.114.092-.235.126-.36Z" fill="#fff" fill-rule="evenodd"/><path d="M10.552,11.259c-.103-.148-.103-.447,0-.509l.452.418c-.12.029-.337.04-.458.091h.006Z" fill="#fff" fill-rule="evenodd"/><path d="M10.076,12.072l1.266-.652c0,0-.178-.212-.338-.252-.338-.046-.899.377-.928.904Z" fill="#fff" fill-rule="evenodd"/><path d="M11.13,12.078c-.653,1.872,2.165,2.164,2.914,2.215l-.091-.469c-1.363-.064-2.634-.361-2.445-1.386-.246-.155-.297-.223-.378-.367v.007Z" fill="#fff" fill-rule="evenodd"/><path d="M11.13,12.072c-.149.075-.367.109-.578.137-.544,2.273,2.978,2.451,3.653,2.537-.103-.212-.132-.321-.16-.458-1.787-.114-3.436-.785-2.915-2.216Z" fill="#c3bdc9" fill-rule="evenodd"/><path d="M20.44,9.742c.195.407.407.888.555,1.34.086-.126.166-.252.338-.395-.092-.429-.31-.881-.899-.951l.006.006Z" fill="#c3bdc9" fill-rule="evenodd"/><path d="M20.44,9.736c.2.418.429.916.561,1.346l-.481-.069c-.286-.309-.355-.928-.08-1.277Z" fill="#fff" fill-rule="evenodd"/><path d="M19.702,10.749c.126-.143.389-.189.601-.148.045.12.125.285.212.412l-.819-.263.006-.001Z" fill="#c3bdc9" fill-rule="evenodd"/><path d="M21.82,10.256l-.487.436.321.166c.258-.217.183-.607.172-.601l-.006-.001Z" fill="#c3bdc9" fill-rule="evenodd"/><path d="M21.334,10.687c-.081.018-.35.395-.333.39l1.219.624c.001-.212-.188-.733-.886-1.014Z" fill="#c3bdc9" fill-rule="evenodd"/><path d="M20.996,11.075l-.882,1.14c.562-.023.79-.275.986-.585l-.11-.549.006-.006Z" fill="#c3bdc9" fill-rule="evenodd"/><path d="M21.82,10.257c-.189-.063-.441-.04-.613.052.057.12.098.274.126.383l.487-.435Z" fill="#fff" fill-rule="evenodd"/><path d="M20.996,11.075l1.231.625c-.223.183-.933.011-1.127-.069l-.104-.556Z" fill="#fff" fill-rule="evenodd"/><path d="M20.996,11.076l-.481-.069c-.533.223-.441,1.134-.401,1.202l.882-1.133Z" fill="#fff" fill-rule="evenodd"/><path d="M20.509,11.013l-.808-.263c.041.194.281.418.458.492.041-.035.219-.201.35-.229Z" fill="#fff" fill-rule="evenodd"/><path d="M21.115,11.632c-.148.223-.194.281-.36.39.286,1.316-1.604,1.643-2.697,1.797-.012.183-.069.333-.12.476.195-.013,4.071-.087,3.177-2.663Z" fill="#fff" fill-rule="evenodd"/><path d="M21.139,11.648c.52,1.913-1.185,2.457-3.195,2.64-.052.12-.098.246-.144.384c2.731-.19,4.157-1.071,3.785-2.915-.177-.029-.315-.068-.446-.109Z" fill="#c3bdc9" fill-rule="evenodd"/><path d="M8.387,25.047c.218.103.493.034.636-.011.08.074-.023.372.206.584-.132.057-.858-.166-.847-.573h.005Z" fill="#f7d256" fill-rule="evenodd"/><path d="M8.079,23.472c.091.292.349.321.452.383c0,.109-.286.103-.292.504-.195-.017-.47-.475-.16-.881v-.006Z" fill="#f7d256" fill-rule="evenodd"/><path d="M9.538,25.877c.355.057.481-.132.561-.144.041.115.201.27.356.35-.075.264-.934.206-.917-.206Z" fill="#f7d256" fill-rule="evenodd"/><path d="M12.281,24.903c-.023-.046-.43,0-.504-.063-.052.063-.069.269-.218.349.098.178.779.12.722-.292v.006Z" fill="#f7d256" fill-rule="evenodd"/><path d="M13.054,21.273c.063-.006.12-.018.172-.029-.241.286-.642.79-1.043,1.214s-.767.841-.63,1.225c-.28-.275-.029-.55.344-.997.413-.485.871-1.041,1.157-1.413Zm-.504,3.075c0,.194-.166.378-.561.36.447-.486-.458-.52-.24-.721.595-.378.847.206.801.361Zm-.423.429c.132.029.212-.132.24-.052.057.161-.235.189-.24.052ZM9.109,23.082c-.092,0-.063.367-.607.349-.012,0-.063,0-.092.052-.063.121.155.372.356.361.177-.012.321-.115.412-.24.041-.023.327-.183.304-.115-.338.166-.252.269.28.31.338-.052.625-.344.745-.401-.344.056-1.077-.173-1.243-.173-.023-.063-.075-.114-.155-.143ZM8.508,24.96c-.011.029-.029.052-.052.069.098.063.349.045.378.023-.029,0-.24-.012-.332-.092h.006Zm2.513-1.523c-.458.224-.773,1.031-1.907.922-.029.098-.091.121-.149.149-.234,0-.509.052-.504.2c0,.178.281.292.464.27.189-.023.384-.201.384-.379c0,0,.017-.029.034-.029c1.254-.269,1.449-.915,1.683-1.139l-.005.006Zm.201.023c-.052.304-1.043,1.214-1.088,1.512-.052-.041-.126-.069-.286-.064.091.459-.286.596-.39.516c0,.205.297.292.493.251.228-.046.417-.395.286-.607.029-.378.526-.486.732-.973.183,0,.212-.286.436-.338-.046-.149-.235.046-.189-.31l.006.013Zm-2.921,0c.029.178.109.258.247.367-.109-.04-.212-.069-.333-.172.109.034.029-.224.086-.195Zm2.371-.486c.212.046.486.068.859.046-.544.189-.79.125-.859-.046Zm.687-.344c0,.029-.046.086-.086.12.263,0,.521-.057.704-.269-.171.08-.366.144-.618.144v.005Zm.373-.601c-.018.034-.086.109-.138.16.218.023.648-.074.836-.286-.171.08-.447.121-.698.121v.005Zm.503-.579c-.04.041-.166.167-.212.206.217.023.705-.149.893-.355-.172.08-.429.149-.676.149h-.005v0Zm.699-.641c-.012.246-.098.406-.19.515.075-.022.149-.04.224-.074-.006-.137-.018-.298-.041-.436l.007-.005Z" fill="#dfdde2" fill-rule="evenodd"/><path d="M19.896,24.657c.218.052.482-.086.607-.091.057.114.08.24.321.321-.16.177-.755.234-.928-.235v.005Z" fill="#f7d256" fill-rule="evenodd"/><path d="M22.306,25.636c-.08.08-.166.16-.32.252.269.246.818-.029.795-.269-.051-.092-.205.109-.481.017h.006Z" fill="#f7d256" fill-rule="evenodd"/><path d="M23.36,24.777c0,.321-.034.407-.074.516.154.103.549-.144.595-.521-.04-.092-.211.069-.521.005Z" fill="#f7d256" fill-rule="evenodd"/><path d="M24.088,23.008c-.115.029-.046.418-.178.539.109.057.183.2.258.332.251-.19.24-.733-.08-.871Z" fill="#f7d256" fill-rule="evenodd"/><path d="M20.171,24.623c.12-.035.251-.098.297-.08.075-.258-.097-.109-.297.08Zm-.172-.206c.235,0,.567.04.653-.275.367.178.75-.16.664-.475c0,0-.121.539-.876.201-.155-.023-.361.075-.349.178.011.132.269.246-.092.378v-.007Zm2.01-.263c.195.194.315.378.275.521.12-.172.131-.069.154,0c.144.109.247.44-.109.658.167.046.183.195,0,.247.006.155.43-.041.464.023.034-.012.046-.064.052-.109.034-.046.04-.103,0-.172.269-.452-.064-.698-.356-.75-.177-.183-.332-.292-.486-.418h.006Zm.012-.487c.285.183.681.326,1.053.566.372-.372.648.24.115.281.137.246.704.229.687.034.355-.67-.607-.836-.796-.595-.292-.167-.556-.35-.974-.424.824.355.967.463.824.486-.131.018-.595-.245-.909-.348Zm.251-.516c.229-.097.721-.086.853-.206.218-.395.619-.292.751-.034.091,0,.16.018.171.092-.086.189-.029.647-.269.532.046-.035.023-.069,0-.103-.103.103-.103-.012-.103-.063-.155.177-.229.148-.338.12.029-.011.041-.04.035-.092.446-.171.057-.693-.304-.205-.12.034-.607-.075-.79-.052l-.006.011Zm-3.561-2.502l-.018.052c.183.167,1.769,1.913,2.239,2.657-.069-.16-.041-.223-.321-.561.716.401,1.07.045,1.024-.035-.057.006-.097.018-.125,0-.664.338-1.157-.223-1.449-.595.372.297.613.349,1.002.372.04-.069.045-.103.052-.137-.035-.006-.069-.018-.092-.035-.452.172-.99-.171-1.414-.744.401.292.693.263.967.263.041-.052.103-.091.109-.154-.04,0-.068-.012-.103-.023-.28.097-.979.063-1.311-.516.229.155.486.247.813.166.063-.051.137-.097.149-.154-.407.103-.802.103-1.163-.218.103,0,.212-.034.321-.086-.211.018-.435,0-.687-.252h.007Z" fill="#dfdde2" fill-rule="evenodd"/><path d="M13.798,8.213c.79.424,1.695-.538,2.33-.017.069,0,.08-.046.069-.092-.738-.664-1.528.315-2.399.109Z" fill="#c3bdc9" fill-rule="evenodd"/><path d="M13.512,20.312l-.063.062c-.075.344-.258.625-.47.888.195.029.429-.075.653-.178-.144-.263-.172-.44-.126-.778l.006.006Z" fill="#c3bdc9" fill-rule="evenodd"/><path d="M13.736,19.848c.109.217.321-.137.417-.235-.132.47-.395.945.178,1.386-.292.029-.372.154-.103.446-.533-.264-.83-.693-.492-1.597Z" fill="#dfdde2" fill-rule="evenodd"/><path d="M14.176,19.59c-.183.928.121,1.294.424,1.381-.114-1.002.286-1.724.842-2.268-.034-.933-.166-1.357-.269-2.027.006.315.228,1.168.08,1.764-.155.624-.601,1.225-1.071,1.157l-.006-.007Z" fill="#cecad5" fill-rule="evenodd"/><path d="M12.327,20.552c.527.034.956-.132,1.305-.486-.189.463-.624.687-1.271.618.234-.041.241-.08-.034-.132Z" fill="#c3bdc9" fill-rule="evenodd"/><path d="M12.264,20.013c-.052.08-.092.115-.132.155.83.109,1.294-.286,1.609-.636.458.029.778-.274,1.053-.578-.309.247-.629.447-.99.401-.355.516-.859.756-1.54.653v.005Z" fill="#c3bdc9" fill-rule="evenodd"/><path d="M12.59,19.384c-.063.132-.08.126-.114.171.28.057.67-.052,1.328-.6.653-.018.922-.441,1.111-.63-.344.297-.698.458-1.054.463-.344.356-.721.642-1.266.596h-.005Z" fill="#c3bdc9" fill-rule="evenodd"/><path d="M12.802,18.863l-.12.183c.228-.012.526,0,1.162-.59.486-.102.928-.469,1.311-1.11-.321.394-.613.812-1.254.869-.166.379-.601.533-1.1.642l.001.006Z" fill="#c3bdc9" fill-rule="evenodd"/><path d="M18.162,19.636c-.046.338-.121.641-.27.876.018.109.012.223.007.332.227-.235.394-.893.263-1.208Z" fill="#c3bdc9" fill-rule="evenodd"/><path d="M18.493,19.796c.247.636.023,1.483-.755,1.632.24.103.967-.229,1.07-1.214l.596.67c.034-.155.052-.31-.057-.538-.47-.098-.625-.286-.847-.55h-.007Z" fill="#c3bdc9" fill-rule="evenodd"/><path d="M18.877,20.002c.321.137.881.349,1.442.103.087.034.167.063.252.074-.189.201-.727.247-1.219.183.676-.091-.349-.165-.475-.36Z" fill="#c5bdcb" fill-rule="evenodd"/><path d="M17.761,18.868c.235.167.492.263.79.263.223.418.864.539,1.225.516.017.057.057.109.103.155-.304,0-.693-.098-1.289-.476-.16-.057-.726-.32-.829-.458Z" fill="#c4bdcb" fill-rule="evenodd"/><path d="M17.64,18.238c.235.195.486.292.762.326.28.298.613.453,1.047.51l.092.16c-.137.011-.796-.281-1.036-.504-.407-.103-.71-.304-.859-.487l-.006-.005Z" fill="#c3bdc9" fill-rule="evenodd"/><path d="M17.692,17.736c.269.263.573.372.819.372.183.194.355.395.744.497.018.052.04.098.069.132-.292,0-.699-.412-.744-.475-.396-.057-.842-.257-.893-.52l.005-.006Z" fill="#c3bdc9" fill-rule="evenodd"/><path d="M15.35,16.544c.086-.034.125-.08.166-.125.069.097.171.12.269.143-.189-.006-.212.08-.12.24.04.063.102.997.12,1.558c0,.521.075.858.178,1.088-.413-.349-.183-2.445-.613-2.898v-.006v0Z" fill="#dfdde2" fill-rule="evenodd"/><path d="M16.037,16.584c.229-.023.459-.035.733-.201l.098.115c-.195.429-.31,1.437-.43,2.341.035-.578.046-1.093.018-1.236-.063-.327-.052-.521-.046-.578.126-.453-.217-.344-.372-.447v.006h-.001Z" fill="#cecad5" fill-rule="evenodd"/><path d="M16.959,16.549l.029.029c-.389.847,0,2.789-.835,3.768l-.018-.378c.635-.418.475-2.559.824-3.419Z" fill="#c3bdc9" fill-rule="evenodd"/><path d="M15.556,18.639c0,1.386.224,1.649-.721,2.806.441-.367.933-1.488.87-.847.109-.206.217-.413.246-.589-.366-.626-.349-.986-.395-1.37Z" fill="#c3bdc9" fill-rule="evenodd"/><path d="M16.323,20.169l-.177.211.052,1.833c.022-.762.062-1.46.125-2.044Z" fill="#c3bdc9" fill-rule="evenodd"/><path d="M16.741,18.834c-.046.286-.08.624-.155.813.126,1.465.527,1.609.859,1.74-.555-.783-.664-1.837-.704-2.553Z" fill="#dfdde2" fill-rule="evenodd"/><path d="M15.676,20.758c-.171.39-.114,1.134-.595,1.615.401-.206.555-.704.566-1.093l.041.412c-.132.842-.516,1.071-.779,1.117.041-.012.458.074.847-.773.012.309-.206.652-.486.767.246.006.492-.218.618-.395-.2-.601-.206-1.128-.2-1.655l-.012.005Z" fill="#e0dee2" fill-rule="evenodd"/><path d="M15.865,22.018c.04.201.103.493.326.779l.018.355c.103-.137.504-1.271.509-1.643.018-.121.023-.258.109-.166.012.006.023.006.034,0-.12-.087-.251-.493-.343-.63.074.44.125,1.07-.327,2.01-.137-.16-.235-.424-.326-.694v-.011Z" fill="#c3bdc9" fill-rule="evenodd"/><path d="M17.8,22.74c-.486.251-.904-.356-1.111-.728l.092-.509c0,0,.04-.029.052-.006.08.561.435,1.219.962,1.248l.005-.005Z" fill="#dfdde2" fill-rule="evenodd"/><path d="M16.604,22.206l-.052.155c.189.418.413.561.699.67-.567-.28-.607-.55-.647-.825Z" fill="#dfdde1" fill-rule="evenodd"/><path d="M16.06,22.922l.149.258.114-.252c-.022.682-.063,1.5-.086,2.257-.062-.762-.148-1.553-.177-2.263Z" fill="#dfdde2" fill-rule="evenodd"/><path d="M16.501,22.499c-.012.04-.029.074-.04.097.504,1.867-.092,2.857-.224,3.006-.349-.619-.344-1.226-.424-1.746.046.47-.006,1.076.401,1.832v.31c.498-.613.802-1.472.418-3.321-.057-.046-.086-.114-.132-.172l.001-.006Z" fill="#c3bdc9" fill-rule="evenodd"/><path d="M16.054,25.824c.04.069.08.138.166.195.109-.115.132-.172.178-.246-.092.492-.132.979-.201,1.465-.045-.481-.08-1.008-.143-1.42v.006Z" fill="#dfdde2" fill-rule="evenodd"/><path d="M16.936,25.905c-.109-.24-.235-.44-.155-.704-.017-.08-.051-.092-.086-.109-.022.143-.074.24-.114.337.189,1.134-.08,1.741-.39,2.257-.509-.687-.417-1.426-.424-2.061-.148,1.288.16,1.849.418,2.141v.315c.728-1.065.659-2.061.498-2.53.08.12.155.251.258.36l-.005-.006Z" fill="#c3bdc9" fill-rule="evenodd"/><path d="M14.182,22.653c.098.933,1.283.653,1.764-.057L15.9,22.47c-.447.578-1.403,1.099-1.718.183Z" fill="#c4bec9" fill-rule="evenodd"/><path d="M15.837,22.997c-.436.905-.962,1.547-1.684,1.609.493.04,1.02-.361,1.185-.532.121-.206.269-.281.121,0-.058.097-.115.166-.206.257.114-.045.355-.417.406-.452.023-.389.109-.607.178-.876v-.006Z" fill="#dfdde2" fill-rule="evenodd"/><path d="M15.659,23.901c-.006.103-.017.206-.017.292-.687.704-1.277.928-1.907.778.521.012,1.123.07,1.924-1.07Z" fill="#c3beca" fill-rule="evenodd"/><path d="M13.437,24.308c-.148-.372-.091-.676.172-.905-.538-.011-1.123.991-.126,1.495-.498-.292-.521-.899-.361-1.099.109-.172.27-.224.155-.029-.074.314.063.469.155.532l.005.006Z" fill="#dfdde2" fill-rule="evenodd"/><path d="M16.661,22.728c.103.16.229.303.39.401-.046.916.962,1.517,1.643,1.26-.39.285-1.677.217-2.033-1.667v.006Z" fill="#dfdde2" fill-rule="evenodd"/><path d="M16.81,23.878v.109c.47.785,1.266.813,1.506.785-.738-.012-1.203-.356-1.506-.894Z" fill="#c5c0ce" fill-rule="evenodd"/><path d="M18.865,23.306c.625.435.452,1.111-.217,1.391.515-.337.773-.778.217-1.391Z" fill="#e1dfe3" fill-rule="evenodd"/><path d="M18.133,24.886c.595.109,1.597-.36,1.059-1.397.544.636-.063,1.769-1.059,1.397Z" fill="#c3bdc9" fill-rule="evenodd"/><path d="M16.81,24.503c0,.057-.007.098-.023.195.509,1.013.796,1.081,1.122,1.345-.618-.458-.933-.985-1.099-1.54Z" fill="#e0dee3" fill-rule="evenodd"/><path d="M17.646,26.41c.109.045.19.011.281.045.778.269,1.741-.189,1.454-1.134.509.498-.429,1.924-1.729,1.089h-.006Z" fill="#c5becc" fill-rule="evenodd"/><path d="M19.014,25.047c.59.584-.017,1.391-.801,1.116.836.115,1.145-.578.801-1.116Z" fill="#c3beca" fill-rule="evenodd"/><path d="M13.289,25.042c-.808.532-.361,1.185.011,1.339-.143-.103-.292-.469.149-.269.143.064.274.069.401.058-.824-.27-.641-.71-.561-1.134v.006Z" fill="#dfdde2" fill-rule="evenodd"/><path d="M15.648,24.303c.017.274.052.498.091.67-.257.515-.572.864-.892,1.111.378-.367.67-.733.795-1.117-.658,1.025-1.11,1.185-1.58,1.208.584-.132,1.437-.636,1.592-1.866l-.006-.006Z" fill="#dfdde2" fill-rule="evenodd"/><path d="M15.745,25.012c.018.08.041.166.086.229-.83,1.597-1.935,1.552-2.313,1.42.716.074.47-.057.235-.098.847.029,1.597-.55,1.992-1.546v-.005Z" fill="#c3bec9" fill-rule="evenodd"/><path d="M15.064,16.229c.109-.075.16-.16.217-.246.023.046.063.08.12.12-.154.052-.212.281-.297.281-.011-.052-.017-.109-.04-.16v.005Z" fill="#c5becb" fill-rule="evenodd"/><path d="M15.413,16.109c.235.086.475.075.767-.132.029.029.063.057.098.092-.281.2-.745.148-.87.04h.005Z" fill="#c3bdc9" fill-rule="evenodd"/><path d="M16.415,16.102c.166.029.332.069.543-.051.029.04.064.074.092.102-.069.069-.429.064-.641-.051h.006v0Z" fill="#c3bdc9" fill-rule="evenodd"/><path d="M17.102,15.662c.052.034.148.132.24.183-.069.098-.137.206-.206.333-.309-.27-.091-.55-.034-.516Z" fill="#c3bdc9" fill-rule="evenodd"/><path d="M14.852,15.736c.046.064.074.103.103.149.189-.132.251-.274.315-.413-.029-.017-.052-.04-.075-.08-.149.264-.24.298-.344.35l.001-.006Z" fill="#c3bdc9" fill-rule="evenodd"/><path d="M15.281,15.479l-.023.04c.372.212.979.372,1.746-.017l-.074-.155c-.498.389-1.059.458-1.649.132Z" fill="#c3bdc9" fill-rule="evenodd"/><path d="M17.067,15.473c.218-.041.144-.315.35-.395.332.498.904.372,1.134-.012l.034.281c-.217.137-.509.383-.997.155-.04.08-.046.206-.052.349-.211-.069-.382-.183-.469-.378Z" fill="#c3bdc9" fill-rule="evenodd"/><path d="M17.743,14.545c.086.16,0,.533.011.659-.16-.023-.251-.155-.337-.263.017,0,.029-.006.034-.023.018-.103.212-.149.292-.373Z" fill="#c3bdc9" fill-rule="evenodd"/><path d="M16.283,15.003l-.018.023c.258.092.785.138,1.162-.114l-.068-.12c-.263.223-.6.331-1.076.211Z" fill="#c3beca" fill-rule="evenodd"/><path d="M16.134,14.918c.046.034.092.068.132.08-.349.321-.858.235-1.368-.034c0-.018,0-.029,0-.046.59.321,1.001.228,1.236,0Z" fill="#c3bdc9" fill-rule="evenodd"/><path d="M14.869,14.918c.126.194-.189.257-.194.549l-.126-.154c0-.189.252-.16.315-.395h.005Z" fill="#c3bec9" fill-rule="evenodd"/><path d="M14.525,15.25l-.24-.366c-.252-.333.584-.395.493-1.014.052.041.109.098.16.126-.029.498-.47.487-.475.824-.057-.023-.086-.074-.098-.143-.023.017-.029.017-.052.04-.103.132.052.206.206.527l.006.006Z" fill="#c3bec9" fill-rule="evenodd"/><path d="M14.754,14.58c.246.034.487,0,.716-.218.04.041.069.081.126.115-.292.178-.687.2-.842.103Z" fill="#c3bdc9" fill-rule="evenodd"/><path d="M15.607,14.483l-.029.023c.407.235.974.228,1.277.023-.045-.023-.08-.057-.114-.086-.367.269-.91.182-1.134.045v-.005Z" fill="#c5becb" fill-rule="evenodd"/><path d="M16.867,14.528l-.023.029c.286.115.648.103.893-.034-.018-.046-.034-.091-.069-.132-.269.212-.538.194-.807.137h.006Z" fill="#c4bec9" fill-rule="evenodd"/><path d="M14.983,14.024c.425.217.888.075,1.14-.149.045.058.086.087.132.115-.315.274-1.128.24-1.272.034Z" fill="#c4bec9" fill-rule="evenodd"/><path d="M16.266,13.996l-.023.018c.384.262.968.102,1.122,0-.017-.064-.04-.115-.057-.161-.269.229-.67.304-1.042.138v.005Z" fill="#c3bdc9" fill-rule="evenodd"/><path d="M13.907,13.458l.057.029c.057-.086.109-.103.132-.069.023.035-.023.092.041.149.194-.155.652-.263.704-.493.086.235.367.24.596.642-.052-.304-.367-.39-.498-.596-.126-.206-.052-.464.052-.796-.212.286-.046.699-.395.881-.224.115-.642.092-.687.247v.006h-.002Z" fill="#c3bdc9" fill-rule="evenodd"/><path d="M15.739,12.003l.012.275c-.361.143-.08,1.047-.224,1.248-.057-.773-.378-1.054.212-1.518v-.005Z" fill="#c3bdc9" fill-rule="evenodd"/><path d="M16.031,12.661h.046c.046.504.578.555.67,1.054-.114-.344-.412-.447-.578-.63-.091.39-.561.504-.675.722-.036-.178.646-.43.537-1.146Z" fill="#c3bdc9" fill-rule="evenodd"/><path d="M16.839,12.175c-.281.441.274.721-.023,1.454.155-.956-.515-.881-.091-1.575.148.144.652.286.698.527-.172-.24-.429-.257-.584-.412v.006Z" fill="#c3bdc9" fill-rule="evenodd"/><path d="M17.417,12.65c.052.172.097.235.143.349-.155.498-.756.671-.79.854-.103-.235.653-.361.647-1.203Z" fill="#c3bdc9" fill-rule="evenodd"/><path d="M17.989,12.141c-.097-.023-.183,0-.292-.109.018.16-.011.258-.029.355.195.114.327,1.174.407,1.219-.041-.452-.023-1.054-.298-1.38l.012-.057c.086.029.149.024.2-.028Z" fill="#c3bdc9" fill-rule="evenodd"/><path d="M14.297,12.965c.189-.281.355-.613.595-.785.24-.171.395-.103.882-.504l.183-.481c-.413.601-.899,1.02-1.598.876.041.023.064.08.356.098-.149.143-.276.458-.418.796Z" fill="#c3bdc9" fill-rule="evenodd"/><path d="M14.194,11.631c.367.183.819.281,1.592-.824.166-.046.326-.132.475-.292-.499,1.19-1.907,1.923-2.067,1.116Z" fill="#dfdde2" fill-rule="evenodd"/><path d="M15.837,12.319c.589-2.222,2.376-3.55.83-4.73c1.122,1.941-.664,2.765-.83,4.73Z" fill="#f1eef0" fill-rule="evenodd"/><path d="M15.413,10.4c.029.584.767.149.945-.229-.298.201-.596.384-.945.229Z" fill="#dfdde2" fill-rule="evenodd"/><path d="M16.518,9.496c.069-.098.08-.006.194.017-.269.562-.727.716-.973.728.337-.178.647-.378.778-.751l.001.006Z" fill="#dfdde2" fill-rule="evenodd"/><path d="M16.341,8.551l.057.057c.08,0,.16,0,.246-.08c0,.068-.023.103-.063.12.046.407,0,.648-.057.831.068-.075.126.029.194.029.103-.161.275-.722,0-1.203.006.137-.143.281-.372.246h-.005Z" fill="#c3bdc9" fill-rule="evenodd"/><path d="M15.378,8.373c.447-.183.705.137.905.166.321.47-.012.876-.224,1.128.144-.24.35-1.219-.675-1.294h-.006Z" fill="#c3bdc9" fill-rule="evenodd"/><path d="M15.78,12.581c.486.229.716-.326.944-.538-.114-.263-.08-.481-.091-.71-.424.229-.413,1.065-.853,1.248Z" fill="#cecad5" fill-rule="evenodd"/><path d="M17.44,8.659c-.041.018-.046.178-.098.172-.034,1.122-1.054,1.741-1.294,3.361.149-.172.258-.859.636-1.483.401-.653.79-1.025.75-2.05h.006Z" fill="#cecad5" fill-rule="evenodd"/><path d="M16.919,10.778c-.407,1.093.401,1.105.47,1.46-.837-.281-.894-.887-.47-1.46Z" fill="#dfdde2" fill-rule="evenodd"/><path d="M17.067,7.64c1.352.877.19,2.645-.314,3.127.2-.447,1.414-1.679.314-3.127Z" fill="#dfdde2" fill-rule="evenodd"/><path d="M17.526,7.153c.137.252.36.653.034.573.573,1.271-.057,1.93-.372,2.64-.664,1.735.435,1.047.309,2.256.372-.435-.114-1.07-.091-1.294-.029-.321.171-1.002.24-1.42.08.229.201.367.349.459-.257-.905.55-2.68-.463-3.213l-.006-.001Z" fill="#cecad5" fill-rule="evenodd"/><path d="M17.658,10.142c.063.092.109.195.217.258.052.355-.441,1.472.303,1.558-.606.303-.939-.567-.52-1.809v-.007Z" fill="#cecad5" fill-rule="evenodd"/><path d="M17.331,6.804c.126.011.43.223.716,0c.195.263-.166.486-.549.292-.098-.063.217-.092-.167-.286v-.006Z" fill="#c3bdc9" fill-rule="evenodd"/><path d="M15.075,6.902c.115.126.229.195.338.498.08,0,.16.011.24.034-.131-.212-.297-.406-.578-.532Z" fill="#dfdde2" fill-rule="evenodd"/><path d="M16.306,6.535c1.174.315,1.066-.229,1.278-.31.205.333-.368.768-1.278.31Z" fill="#c3bdc9" fill-rule="evenodd"/><path d="M14.869,6.764c-.068-.023-.126-.018-.166-.012.103-.841,1.036-.309,1.54.006-.636-.303-1.431-.693-1.374,0v.006Z" fill="#c3bec9" fill-rule="evenodd"/><path d="M14.875,6.765c-.052-.957,1.328.137,1.964.171-.447.052-1.907-.922-1.896-.16l-.068-.017v.006Z" fill="#f1eef0" fill-rule="evenodd"/><path d="M14.961,6.792l.114.046c.012-.086.046-.178.086-.189.27-.052.018.086.064.132.051.034.109.074.166.109c0-.041,0-.086.006-.144c0-.217.63.132,1.071.275.045.132-.247.292-.475.246.205.166.647.086.841-.183.338.023.413-.029.487-.114-.258-.052-.379.075-1.025-.103-.596-.172-1.318-.676-1.335-.075Z" fill="#c3bdc9" fill-rule="evenodd"/><path d="M15.499,6.684c.075-.006.137.018.206.046-.132.206.063.401.172.367.034.034.074.068.194.097-.172.035-.756-.143-.573-.515l.001.005Z" fill="#b6b1bf" fill-rule="evenodd"/><path d="M13.959,7.863c-.653-1.254,1.231-1.477,1.426-.435c0,0,.469.017.881.24.801.584.315.915.155.893-.372.006-.447-.356-.991-.218-.132.052-.137.115-.194.115-.326-.08.269-.739.916-.263.057.04.183-.041.074-.167-.429-.435-1.179-.194-1.339-.154-.206-.338-.671-.263-.916,0l-.012-.011Z" fill="#f7d256" fill-rule="evenodd"/><path d="M15.831,6.838c.08.064.498.132.509.172-.131.316-.566.218-.509-.172Z" fill="#aaa3b5" fill-rule="evenodd"/><path d="M18.614,15.335c0,0-.012.012,0,.023.097.052.223.08.367.092l.343,2.01c-.029-.521-.063-1.066-.074-1.564-.041-.097-.069-.274-.092-.452.046,0,.086-.011.132-.022.217,1.271.744,1.522.847,1.626-.28-.292-.658-.705-.778-1.655.189-.103.274-.228.332-.251.018-.052.006-.183-.017-.241-.189.178-.356.39-.739.361-.023,0,0,.035,0,.035.148.194-.149.074-.31.04h-.011v-.002Z" fill="#c3bdc9" fill-rule="evenodd"/><path d="M19.34,17.672l.018.303c.189-.12.367-.16.618-.739.103,1.031.115,2.033.716,2.239-.309-.71-.309-1.483-.332-2.233-.034.046-.075.08-.109.114-.246-.143-.321-.258-.452-.389-.08.257-.126.526-.452.704l-.007.001Z" fill="#cecad5" fill-rule="evenodd"/><path d="M19.787,15.18c.08.029.178.041.275.041l.103,1.494-.378-1.535Z" fill="#dfdde2" fill-rule="evenodd"/><path d="M20.503,15.073l.052-.035c.121.275.286.516.527.705l.647,4.34-.933-4.352c0,.751-.212,1.248-.55,1.586l-.034-.286c.355-.481.567-1.059.297-1.958h-.006Z" fill="#c3bdc9" fill-rule="evenodd"/><path d="M21.488,16.074c.097.057.212.109.337.143.39,1.312.539,3.894.023,4.827l-.045-.355c-.899-.687-1.128-2.606-1.306-3.682l.029-.052c.172.979.378,2.868,1.26,3.635.16-.504.504-1.952-.115-4.363-.045-.05-.12-.102-.183-.153Z" fill="#c4bec9" fill-rule="evenodd"/><path d="M20.939,14.677c.08-.011.12,0,.246-.034l.858,1.283-1.104-1.249Z" fill="#dfdde2" fill-rule="evenodd"/><path d="M21.861,16.23c.125.04.28.08.44.114c0,.04,1.255,3.258,2.13,3.504-1.116.224-1.678-1.734-2.405-2.891-.052-.246-.109-.486-.166-.721l.001-.006Z" fill="#dfdde2" fill-rule="evenodd"/><path d="M21.711,14.293c0,0-.023.035-.04.046.509.79.521,1.271.452,1.7l.206.27c.103-.601-.006-1.048-.155-1.472l2.537,3.682-2.239-3.584.475.068c-.394-.131-.794-.177-1.236-.71Z" fill="#c3bdc9" fill-rule="evenodd"/><path d="M23.24,15.009c.097,0,.183,0,.251-.023.504.819,1.798,2.302,1.644,4.329l-.161-.31c-1.202-.274-2.038-1.786-2.462-2.399.705.928,1.5,2.136,2.433,2.325.076-1.511-1.058-2.989-1.705-3.922Z" fill="#c3bdc9" fill-rule="evenodd"/><path d="M23.503,14.981l.046.075c1.111.59,2.359,1.764,3.133.899-.802.321-2.096-.807-2.949-1.231l.041.183c-.092.046-.178.057-.264.074h-.007Z" fill="#dfdde2" fill-rule="evenodd"/><path d="M21.929,13.595c0,.034,0,.057-.006.08l1.38.858-1.26-1.008c-.029.035-.074.047-.114.07Z" fill="#dfdde2" fill-rule="evenodd"/><path d="M23.652,14.402c.023.092.052.183.069.281c1.655.767,2.645.578,3.126.274l-.258-.091c-.726.481-2.49-.166-2.937-.464Z" fill="#c3bdc9" fill-rule="evenodd"/><path d="M22.336,13.097c0,0-.012.046-.018.069.704.372,1.191,1.059,1.174,1.535l.24.194c-.092-.79-.379-1.088-.665-1.38l3.362,1.317-3.264-1.529c.436-.098.888-.126,1.266-.578l.767-.029c.659-.103,1.403-.481,1.477-.835l-.246.028c-.315.699-1.558.676-2.205.699-.297.561-1.248.601-1.895.515l.007-.006Z" fill="#c3bdc9" fill-rule="evenodd"/><path d="M24.214,12.942c-.086.069-.172.115-.263.155.349.075.675.172.979.286.87.092,1.729-.04,1.769-.778-.367.589-1.409.481-2.48.337h-.005Z" fill="#dfdde2" fill-rule="evenodd"/><path d="M22.324,12.427c.023.075.034.137.046.206l1.78-.046c-.607-.051-1.23-.097-1.826-.16Z" fill="#dfdde2" fill-rule="evenodd"/><path d="M23.183,11.712c.36.166.693.349.956.561l-.235-.217c.762-.063,1.535-.126,2.393-.172l-2.708-.017-.406-.155Z" fill="#c3bdc9" fill-rule="evenodd"/><path d="M22.61,11.774c-.006.04-.029.075-.046.114l.596-.171c.893-.642.933-.956,1.048-1.306l1.357-.847-1.547.767c-.835.006-1.053.126-1.305.195.71-.155,1.18-.178,1.437-.098l-.166.103c-.212.71-1.013,1.122-1.38,1.248l.006-.005Z" fill="#c3bdc9" fill-rule="evenodd"/><path d="M22.605,11.19c.023.046.029.103.04.155.424-.229.824-.481,1.219-.739-.418.206-.842.418-1.259.589v-.005Z" fill="#dfdde2" fill-rule="evenodd"/><path d="M23.75,11.282c.481-.041.962-.052,1.465-.011.115-.064,1.329-.418,1.037-1.06-.349.705-1.643.945-1.746,1.002-.206.023-.705.041-.756.075v-.006Z" fill="#dfdde2" fill-rule="evenodd"/><path d="M25.748,9.473l.269-.114c.029.051-.166.417-.51.801-.452.498-.715.716-1.569.87.018-.023.035-.046.046-.069.664-.177,1.575-.824,1.764-1.483v-.005Z" fill="#dfdce1" fill-rule="evenodd"/><path d="M22.902,10.177l-.08.12c.762-.549,1.369-.887,1.826-1.03.458-.482.561-.963.372-1.237.029.893-1.391,1.563-2.124,2.147h.006Z" fill="#dfdde2" fill-rule="evenodd"/><path d="M22.409,10.521l-.029.228c.567-.412.87-1.162.79-1.791l-.2.205-.882.716c.046.041.098.087.132.126l.751-.819c.051.676-.407,1.203-.562,1.335Z" fill="#c3bec9" fill-rule="evenodd"/><path d="M23.177,9.461l-.052.189c.367-.228.619-.469.847-.716.63-.732.71-1.368.768-1.677l-.27.217c.046.934-1.001,1.826-1.282,1.981l-.011.006Z" fill="#dfdde2" fill-rule="evenodd"/><path d="M22.868,8.935c.103,0,.212-.007.315,0l1.236-1.42-1.551,1.42Z" fill="#c3bdc9" fill-rule="evenodd"/><path d="M21.957,8.132l-.155.178c.064.349.064.819-.452,1.391l.018.029.034-.011c.413-.51.842-.642,1.271-.767-.252.063-.504.103-.784.251.194-.584.109-.881.068-1.065v-.006Z" fill="#c3bdc9" fill-rule="evenodd"/><path d="M22.015,8.596v.115c.44-.275.887-.601,1.294-1.054.234-.303.538-.733.577-1.311l-.234.183c-.046.967-1.294,1.797-1.638,2.072l.001-.005Z" fill="#dfdde2" fill-rule="evenodd"/><path d="M21.013,8.47c.36-.155.709-.304.95-.35l1.558-1.448c-.418.303-1.294,1.059-1.706,1.368-.144.109-.286.103-.808.43h.006Z" fill="#dfdde2" fill-rule="evenodd"/><path d="M23.607,6.536c-3.945.687-6.133,5.445-3.493,5.015l-.149-.034c-.527.046-.664-.413-.612-.705.046-.314.349-.492.435-.52-.023-.281-.034-.562.24-.79.109-.263.235-.401.361-.539.413-1.499,2.508-2.25,3.218-2.421v-.006Z" fill="#f1eef0" fill-rule="evenodd"/><path d="M21.768,8.299c-.492.074-1.168.618-1.271.847-.011.023,0,.057-.171.148v.029c.177-.074.636,0,.205.103.281-.006.527.103.694.481.91-.137,1.139.527.91.968.601.521.223,1.191-.109,1.317.2.447.303,1.036-.31,1.266c0,.395-.057,1.013-.996,1.008-.115.269-.447.727-1.014.481c0,0,0,.017,0,.034-.011.029.235.092.241.08.194.023.217.149-.018.092-.086-.023-.16-.046-.223-.075c0,0,0,.04-.012.063.612.212.968-.16,1.157-.475.733-.04,1.031-.441,1.07-1.07.596-.372.516-.94.333-1.329.532-.401.492-1.099.091-1.425.275-.922-.543-1.169-.979-1.105-.143-.247-.24-.281-.344-.35l.774-1.047-.94.967c-.091-.034-.217-.045-.366-.04.2-.498.979-.881,1.288-.968h-.01v0Z" fill="#c3bdc9" fill-rule="evenodd"/><path d="M14.589,7.199c.114.177.315-.052.641.297l.04-.017c-.074-.298-.274-.475-.572-.51.126.109.034.115.029.189-.001.064-.001.138-.138.041Z" fill="#e0a231" fill-rule="evenodd"/><path d="M14.067,7.737c.178-.097.567-.24.813.103.778-.229,1.328-.017,1.403.292.046-.086-.172-.555-1.059-.475-.756-.532-1.185-.052-1.162.08h.005Z" fill="#e0a231" fill-rule="evenodd"/><path d="M15.253,8.408c-.137,0,.286-.504.973-.029.247.097.367-.029.321-.235-.017-.149-.097-.235-.148-.349.349.257.389.584.154.71-.366.183-.624-.464-1.3-.103v.006Z" fill="#dfa231" fill-rule="evenodd"/><path d="M14.68,15.495l.155.218-.04-.029c-.436.206-.659.126-.87.029l-.023-.018c-.447.086-.728-.029-.968-.206.018.132.109.235.229.327l-.47,2.044.224-1.919c-.27.751-.619,1.1-1.1,1.312l.034-.212c.441-.223.819-.653.997-1.581-.178.023-.355.046-.532,0l-.441,1.518.212-1.569c-.189-.126-.349-.286-.509-.447v-.029c.045.068.097-.138.091-.201.333.539.796.636,1.254.481c0,.052,0,.098-.022.172h.022c0,0,.029-.052.041-.092-.012-.011-.018-.029-.023-.045v-.018c.258.452.881.24.962.281-.011.023,0,.091.018.148l.011.018c0,0,.012-.063,0-.109l-.023-.04.018.011c.212.16.504.149.75-.052l.003.008Z" fill="#c3bdc9" fill-rule="evenodd"/><path d="M13.231,15.857c.144.069.293.121.459.155-.075.962-.562,2.056-1.077,2.382l.012-.269c-.126-.212-.224-.544-.252-1.232l.04-.04c.012.481.064.916.224,1.254.246-.183.773-.796.858-1.969c0-.075-.017-.114-.057-.137-.098-.052-.155-.098-.212-.138l.005-.006Z" fill="#c1c1c9" fill-rule="evenodd"/><path d="M11.376,19.916c.555.149.922-.922,1.128-1.638-.098-.194-.235-.394-.246-1.265l-.046.046c-.057,1.122-.069,2.359-.842,2.857h.006Z" fill="#c3bdc9" fill-rule="evenodd"/><path d="M11.64,15.038l.034.035c-.041.212-.327.979.029,1.729-.201-.292-.361-.756-.057-1.764h-.006Z" fill="#dfdde3" fill-rule="evenodd"/><path d="M11.342,15.507l-.109.172-1.174,4.775l1.248-3.973c.064.228.138.469.464.847-.458,1.62-1.185,3.069-1.803,3.452l.057-.194c-.263-.801-.052-2.491.401-4.191-.292.933-.887,2.966-.509,4.449l-.121.366c1.232-.841,1.958-2.954,2.234-4.031-.069.052-.144.08-.218.109-.389-.349-.572-.904-.469-1.775l-.001-.006Z" fill="#c3bdc9" fill-rule="evenodd"/><path d="M10.603,14.174c.029.148.201.321.286.469.046.075.098.109.16.018l.052-.086c.126.143.304.223.561.177l-.309.716c-.361.699-.836.848-1.312,1.014l.149-.275c.618-.057,1.059-.67,1.288-1.231-.154-.035-.303-.098-.475-.206l-.727,1.266.481-1.283c.099-.202-.159-.362-.154-.579Z" fill="#c3bdc9" fill-rule="evenodd"/><path d="M10.306,16.395c-.087.034-.178.068-.275.091-.796,1.78-1.237,3.367-2.656,3.865c1.282.246,2.147-1.815,2.462-2.433.228-.561.366-1.082.469-1.529v.006Z" fill="#cecad5" fill-rule="evenodd"/><path d="M10.483,14.225c-.144.171-.636.858-.327,2.004l.029-.035c-.223-.762.012-1.609.298-1.975v.006Z" fill="#e0dee4" fill-rule="evenodd"/><path d="M9.957,15.239c-.041.297-.029.532-.012.767-.962,1.706-2.571,3.281-3.498,3.343c1.185-1.586,2.364-3.223,3.55-4.838.075-.034.155-.086.229-.137-.126.183-.183.333-.206.47L6.768,19.018c1.088-.092,2.868-2.668,3.137-3.361c0-.206.029-.321.058-.418h-.006Z" fill="#c3bdc9" fill-rule="evenodd"/><path d="M6.641,19.075l.075-.092c-.092-1.609,1.729-3.521,2.222-4.122-.08.171-2.405,2.215-2.296,4.219l-.001-.005Z" fill="#dfdce1" fill-rule="evenodd"/><path d="M5.318,16.195c.275.429.733.693,2.457-.349.344-.378.687-.767,1.031-1.094h-.086c-.578.235-2.079,1.804-3.402,1.449v-.006Z" fill="#dfdde2" fill-rule="evenodd"/><path d="M9.796,13.172c-.224.091-1.071.401-1.157,1.357l-.183.103c1.162.383,2.044-.493,2.216-.653-.183-.114-.367-.212-.521-.486l-.155.074c-.372.31-.824.614-1.259.905l1.351-.687c.08.086.166.177.355.292-.819.561-1.46.532-1.769.452.046-.556.378-1.026,1.122-1.357Z" fill="#c3bdc9" fill-rule="evenodd"/><path d="M8.49,14.311c-.023.114-.057.24-.052.326-.366.144-.778.263-1.236.338-.029.006-.149.052-.195-.034-.052-.035-.114-.041-.171-.035-.012-.028-.069-.017-.075-.04c1.122-.194,1.632-.463,1.729-.55v-.005Z" fill="#cecad5" fill-rule="evenodd"/><path d="M7.237,13.487c-.298.143-1.529.796-1.741,1.426.601.183,1.048.023,1.323,0-.011-.018-.063-.012-.069-.041-.446.064-.985.098-1.133.006l.109-.057c.034-.532,1.305-1.196,1.506-1.334h.005Z" fill="#dfdde1" fill-rule="evenodd"/><path d="M5.799,14.798c2.004-.744,2.978-1.34,4.048-1.701v.035c-.086.052-.789.217-1.065.618L5.799,14.798Z" fill="#c3bdc9" fill-rule="evenodd"/><path d="M9.504,13.206c-.138.057-.275.103-.418.183-.653-.098-.762-.258-1.043-.395l.058-.023c.103.075.234.132.355.194.194.064.24-.011.046-.08-.229-.074-.372-.171-.498-.269.223-.435.755-.647.824-.681-.292.189-.636.36-.721.652.458-.068.944-.148,1.54-.28.046.08.086.16.171.269l-.017.017-.092-.109-1.597.121c.441.303.916.332,1.385.383l.007.018Z" fill="#c3bdc9" fill-rule="evenodd"/><path d="M5.393,12.593c.183.618,1.735.458,2.651.395l.046-.018c-.075-.052-.137-.103-.178-.154-.378-.08-2.113.287-2.519-.223Z" fill="#dfdde2" fill-rule="evenodd"/><path d="M8.313,12.255l.017.018c-.109.091-.217.171-.326.303-1.431,0-2.336-.566-2.594-.899.355-.285.801-.389,1.277-.435-.406.121-.881.189-1.1.447h-.102c.664.744,2.439,1.077,2.822.572l.006-.006Z" fill="#dfdde2" fill-rule="evenodd"/><path d="M5.679,11.712c.951.132,1.884.252,2.863.406.132-.114.372-.194.739-.217-.126,0-.229-.017-.429.012-1.089.016-2.119-.121-3.173-.201Z" fill="#c3bdc9" fill-rule="evenodd"/><path d="M9.761,11.562c-.091.092-.137.229-.171.378-1.048-.343-1.219-.996-1.255-1.065.63-.435,1.008-.274,1.529-.286-1.111-.051-1.403.241-1.448.298.417.114.709.217,1.603.366-.086.064-.137.115-.178.172-.344-.143-.985-.338-1.437-.515.075.303.538.755.933.876.109.029.229.086.275-.057.017-.058.103-.149.143-.167h.006Z" fill="#c3bdc9" fill-rule="evenodd"/><path d="M5.777,10.188c.2.201.962.865,2.359.698.052.138.109.189.16.241-.372-.058-.744-.098-1.123-.069-.613-.183-1.173-.406-1.402-.87h.006Z" fill="#dfdde2" fill-rule="evenodd"/><path d="M8.628,10.475c0,0,.04.029.068.034-.228.092-.406.189-.543.292-.705-.217-1.701-.739-2.061-1.392.435-.194,1.173-.102,1.603,0-.475,0-1.047-.102-1.328.087L6.15,9.421c.086.28,1.586,1.586,2.473,1.054h.005Z" fill="#dfdde2" fill-rule="evenodd"/><path d="M6.441,9.536c.893.315,1.746.624,2.457.922.223-.052.44-.041.658,0-.052-.052-.103-.092-.143-.161h-.018l.092.126c-1.214-.412-2.107-.641-3.04-.881l-.006-.006Z" fill="#c3bdc9" fill-rule="evenodd"/><path d="M9.257,9.89c-.068-.126-.132-.263-.137-.452-.338.16-1.873-.509-2.239-1.346.023.733,1.335,1.312,2.376,1.792v.006Z" fill="#dfdde2" fill-rule="evenodd"/><path d="M10.145,10.349c-.046.052-.086.115-.143.144-.029.017-.058.017-.087,0-.543-.349-.652-.951-.636-1.071.418-.068.997-.063,1.798.436-.177-.041-.767-.475-1.718-.395-.017.326.229.95.779.887l.007-.001Z" fill="#c3bdc9" fill-rule="evenodd"/><path d="M9.435,9.518l.962.699c.126.006.247,0,.372.063.006-.023.018-.057.041-.103-.527-.218-.917-.442-1.375-.659Z" fill="#c3bdc9" fill-rule="evenodd"/><path d="M7.271,7.28l.258.155c-.034.578.996,1.711,2.142,1.798-.189.017-.395.011-.544.08-.544-.338-.904-.694-1.208-1.008-.063.011-.114-.149-.217-.098-.292-.378-.406-.67-.424-.922L7.271,7.28Z" fill="#dfdde2" fill-rule="evenodd"/><path d="M8.942,7.732c-.383-.149-.732-.321-1.396-.292c1.036.75,1.597,1.219,2.359,1.809.349.052.681.206,1.019.338-.046-.091-.08-.183-.098-.281c0,.08,0,.155.052.235-.452-.132-2.307-1.448-3.217-2.038.343-.109.829.092,1.281.229Z" fill="#c5becb" fill-rule="evenodd"/><path d="M9.469,7.766c-.417-.36-.881-.773-.985-1.351.487.057,1.438.384,2.176.916-.687-.395-1.334-.687-1.861-.682-.046.481.395.796.676,1.117h-.006Z" fill="#dfdde2" fill-rule="evenodd"/><path d="M8.828,6.667l-.023.017c.705.521,1.214,1.013,1.769,1.517.155.132.137.275.155.418.057-.068-.018-.292.103-.321.114-.023.555.206.584.172-1.036-.458-1.729-1.197-2.583-1.803h-.005Z" fill="#c3bdc9" fill-rule="evenodd"/><path d="M11.039,9.443c-.098-.16-.252-.652-.155-.985c1.334.286,1.563,1.34,1.586,1.552-.195-.762-.922-1.454-1.426-1.363.303.281.682.859.91,1.105-.109,0-.223.012-.292.04-.189-.022-.274.018-.372.046-.103-.12-.143-.212-.206-.309.138.189.333.16.532.103-.205-.373-.412-.642-.618-.963-.103.075,0,.475.029.774h.012Z" fill="#e0dee4" fill-rule="evenodd"/><path d="M11.577,8.024c2.273,1.511,2.444,3.991.836,3.584c1.929-.229-.332-3.098-.836-3.584Z" fill="#dfdde2" fill-rule="evenodd"/><path d="M11.685,9.799c.189-.08.687-.068.71.705l-.166.126c0-.212.034-.687-.544-.825v-.006Z" fill="#c3bdc9" fill-rule="evenodd"/><path d="M12.229,10.641l.172-.126c.83.315.424,1.207-.155,1.065.687-.069.539-.951-.017-.939Z" fill="#c3bdc9" fill-rule="evenodd"/><path d="M14.898,4.84c.114.195-.201.785.337.699.183.114.344.051.43.051.355-.125.343-.372.366-.435-.309-.435.041-.521.075-.544.189.023.292.379.034.487.023.017.052.011.092-.006c0,.566.401.607.675.515.55.149.281-.486.544-.956-.292.521-.103.99-.532.928.109-.269-.183-.475-.034-.767-.224.189.148.544,0,.727-.149.132-.298.023-.304-.034-.063-.194.378-.424.114-.779.092.19.058.275.012.402-.046.12-.235.228-.149.475-.194-.041-.292-.263-.24-.447.052-.178.143-.475-.194-.573-.424.126-.206.464-.155.521.103.114-.086.452-.327.452.109-.166-.022-.2-.183-.47-.011.144.321.333.132.447-.097.08-.235.035-.292-.023-.109-.12.149-.263.103-.504-.068.344-.171.327-.155.487-.125.034-.257.08-.297-.16-.001-.327-.001-.528-.052-.493Z" fill="#e0a231" fill-rule="evenodd"/><path d="M17.102,6.174v.034c-.653.041-1.323-.086-1.964-.097v-.029c.653.018,1.169.133,1.964.092Z" fill="#e0a231" fill-rule="evenodd"/><path d="M16.088,6.284v.029c.379.057.756.12,1.071.086v-.029c-.377.046-.721-.029-1.071-.086Z" fill="#e0a231" fill-rule="evenodd"/><path d="M15.19,5.745c-.103.034-.058.189,0,.183.12.006.24.023.36,0c.069-.034.092-.155.012-.201-.126-.017-.252-.017-.372.012v.006Zm-.023-.023c.206-.04.395-.011.504.006.097.023.097.195,0,.229-.109.011-.344.006-.504-.006-.103-.086-.051-.195,0-.229Z" fill="#e1a132" fill-rule="evenodd"/><path d="M15.911,5.911c.269.034.498.057.441-.155-.074,0-.601-.114-.441.155Zm-.005.028c-.035-.04-.087-.12.011-.223.149-.012.304,0,.464.023.143.057.132.189.011.24-.252.001-.389-.017-.486-.04Z" fill="#e1a132" fill-rule="evenodd"/><path d="M16.644,5.946c.269.057.493.109.452-.109-.074,0-.584-.172-.452.109Zm-.011.028c-.035-.041-.075-.126.029-.224.383.018.321.023.458.058.137.068.114.2-.006.24-.333.006-.39-.046-.481-.08v.006Z" fill="#e1a132" fill-rule="evenodd"/><path d="M11.771,10.16l-.424,1.254c.121,0,.218.006.424-.034.195-.396.235-.957,0-1.22Z" fill="#c3bdc9" fill-rule="evenodd"/><path d="M12.115,12.604l-.767-1.191c0,0-.194.493-.217.653.097.264.549.533.984.538Z" fill="#fff" fill-rule="evenodd"/><path d="M11.989,11.688c.269-.097.321-.257.326-.355l-.544.046c.075.097.155.195.218.309Z" fill="#c3bdc9" fill-rule="evenodd"/><path d="M11.09,10.783c-.109-.075-.464-.097-.539-.034l.452.418c.018-.12.047-.263.087-.384Z" fill="#c3bdc9" fill-rule="evenodd"/><path d="M10.071,12.072l1.266-.653c.029-.011-.155.498-.212.653-.149.08-.779.229-1.059,0h.005Z" fill="#c3bdc9" fill-rule="evenodd"/></svg>
