<svg id="vector" xmlns="http://www.w3.org/2000/svg" width="7.13797d" height="12.021973d" viewBox="0 0 7.138 12.022" transform="matrix(-1, 0, 0, 1, 0, 0)"><path fill="#145093" d="M6.5745,6.5745L6.5745,6.5745A0.7969,0.7969 0,0 1,5.4476 6.5745L0.5643,1.6912A0.7969,0.7969 90,0 1,0.5643 0.5643L0.5643,0.5643A0.7969,0.7969 90,0 1,1.6913 0.5643L6.5745,5.4475A0.7969,0.7969 0,0 1,6.5745 6.5745z" id="path_0"/><path fill="#145093" d="M6.5744,6.5746L1.6904,11.4586A0.797,0.797 0,0 1,0.5633 11.4586L0.5633,11.4586A0.797,0.797 0,0 1,0.5633 10.3314L5.4473,5.4474A0.797,0.797 90,0 1,6.5744 5.4474L6.5744,5.4474A0.797,0.797 0,0 1,6.5744 6.5746z" id="path_1"/></svg>